<?xml version="1.0" encoding="iso-8859-1"?>

<svg class="thumb" width="886" height="318" viewBox="0,0,886,318" xmlns="http://www.w3.org/2000/svg" xmlns:inkscape="http://www.inkscape.org/namespaces/inkscape" xmlns:sodipodi="http://sodipodi.sourceforge.net/DTD/sodipodi-0.dtd" xmlns:xlink="http://www.w3.org/1999/xlink">

<defs></defs><g transform="matrix(2.7273,0,0,2.7273,399.1482,1.1961)"><svg width="58.95825" height="99.877" viewBox="-0.00025000000000030553,0.06200000000000028,58.95825,99.877"><defs><linearGradient x1="0" y1="0.5" x2="1" y2="0.5" id="Sjak07t7r1zq"><stop offset="1.66%" stop-color="#cf1717"></stop><stop offset="62.09%" stop-color="#f2af58"></stop><stop offset="100%" stop-color="#000000"></stop></linearGradient></defs><path d="M53.935,12.501L17.941,48.496c-0.793,0.793-0.793,2.079,0,2.873l36.017,36.017l-7.553,7.553L7.546,56.079    c-3.395-3.395-3.395-8.899,0-12.294L46.269,5.062L53.935,12.501z" fill="url('#Sjak07t7r1zq')"></path></svg></g><g transform="matrix(2.7273,0,0,2.7273,561.0856,51.3006)"><svg width="40.28824999999999" height="62.50800000000001" viewBox="59.712,18.618,40.28824999999999,62.50800000000001"><defs><linearGradient x1="0" y1="0.5" x2="1" y2="0.5" id="Sjak07t7r1zx"><stop offset="0%" stop-color="#000000"></stop><stop offset="100%" stop-color="#000000"></stop></linearGradient></defs><path d="M64.763,68.686l17.296-17.296c0.793-0.793,0.793-2.079,0-2.873L64.712,31.171l7.553-7.553l20.189,20.189    c3.395,3.395,3.395,8.899,0,12.294L72.43,76.126L64.763,68.686z" fill="url('#Sjak07t7r1zx')"></path></svg></g><g transform="matrix(2.7273,0,0,2.7273,623.3869,98.6506)"><svg width="93.27371414667874" height="51.61827156266003" viewBox="1.6145196969668616,24.09172843734,93.27371414667874,51.61827156266003"><defs><linearGradient x1="0" y1="0.5" x2="1" y2="0.5" id="Sjak07t7r203"><stop offset="64.45%" stop-color="#000000"></stop><stop offset="73.7%" stop-color="#ffffff"></stop><stop offset="87.2%" stop-color="#000000"></stop><stop offset="100%" stop-color="#000000"></stop></linearGradient></defs><path d="M55.229,31.675c-1.019-0.139-2.051-0.211-3.069-0.211c-4.496,0-8.521,1.376-11.8,3.368  c-1.909-1.839-7.904-7.071-12.772-5.424c-2.62,0.886-4.214,3.396-4.738,7.459c-0.333,2.587-1.244,4.254-2.785,5.096  c-3.124,1.708-8.431-0.119-10.209-0.961c-1.127-0.54-2.479-0.062-3.019,1.063c-0.54,1.128-0.063,2.479,1.063,3.019  c0.245,0.117,4.451,2.097,8.945,2.097c1.825,0,3.699-0.326,5.374-1.236c2.872-1.562,4.594-4.421,5.12-8.498  c0.271-2.109,0.892-3.476,1.698-3.75c1.658-0.555,5.209,1.715,7.645,3.899c-3.202,2.918-5.113,6.284-5.18,8.704  c-0.073,2.639,2.725,6.083,5.083,8.508c7.135,7.336,20.703,15.9,35.453,15.902c0.001,0,0.003,0,0.005,0  c0.45,0,0.898-0.008,1.433-0.027c11.708-0.836,16.149-7.102,16.4-12.686C90.326,48.045,78.354,35.44,55.229,31.675z M54.555,36.153  c0.019,0.003,0.037,0.007,0.057,0.01c-1.287,0.731-2.544,1.62-3.754,2.595c-1.618-0.896-3.083-1.478-4.378-1.818  c1.731-0.581,3.628-0.947,5.68-0.947C52.971,35.992,53.796,36.048,54.555,36.153z M36.026,46.425c0.043-1.57,2.279-4.87,6.045-7.343  c1.32-0.222,3.572-0.152,6.747,1.434c-2.371,2.184-4.478,4.585-6.134,6.657c-0.479-0.492-0.928-0.969-1.312-1.402  c-2.198-2.801,0.413-5.385-0.343-4.752c-2.618,2.195-3.552,4.197-3.673,4.869c0.306,0.931,1.396,2.443,3.103,4.212  c-0.373,0.518-0.687,0.966-0.93,1.32C37.374,49.174,36.124,47.307,36.026,46.425z M85.354,57.795  c-0.211,4.711-4.772,7.844-12.119,8.369c-0.399,0.014-0.795,0.02-1.192,0.02c-0.001,0-0.003,0-0.003,0  c-13.055,0-24.372-7.158-30.685-12.975c0.277-0.42,0.586-0.869,0.926-1.348c6.382,5.803,18.125,13.055,30.909,12.604  c6.586-0.473,10.701-3.145,10.883-7.145c0.052-1.17-0.24-2.17-0.832-3.551c-0.086,1.932-0.342,6.957-10.176,7.15  c-12.446,0.439-22.72-6.547-28.577-11.985c3.795-4.759,9.323-10.39,14.471-11.921C77.573,41.259,85.641,51.424,85.354,57.795z" fill="url('#Sjak07t7r203')"></path></svg></g><g transform="matrix(0.9493,0,0,0.9493,0.4596,191.4417)"><svg width="574.8571428571429" height="128" style="overflow: visible;"><defs><linearGradient x1="0" y1="64" x2="574.86" y2="64" gradientUnits="userSpaceOnUse" id="Sjak07t7r20d"><stop offset="0%" stop-color="#000000"></stop><stop offset="100%" stop-color="#000000"></stop></linearGradient></defs><path fill="none" d="M-50,108 C231.984375,107 271.984375,107 553.96875,108" style=""></path><text x="251.5" y="0" fill="url('#Sjak07t7r20d')" dy="83.2" style="font-size: 100px; font-family: Audiowide; text-anchor: middle;">Bobarian</text></svg></g><g transform="matrix(0.9806,0,0,0.9806,590.1314,193.4363)"><svg width="453" height="128" style="overflow: visible;"><defs><linearGradient x1="0" y1="64" x2="453" y2="64" gradientUnits="userSpaceOnUse" id="Sjak07t7r20k"><stop offset="40.28%" stop-color="#000000"></stop><stop offset="99.53%" stop-color="#000000"></stop><stop offset="100%" stop-color="#000000"></stop></linearGradient></defs><path fill="none" d="M-50,108 C131.25,107 171.25,107 352.5,108" style=""></path><text x="151" y="0" fill="url('#Sjak07t7r20k')" dy="83.2" style="font-size: 100px; font-family: Audiowide; text-anchor: middle;">Gaming</text></svg></g></svg>
