<?xml version="1.0" encoding="iso-8859-1"?>
<!-- Generator: Adobe Illustrator 19.0.0, SVG Export Plug-In . SVG Version: 6.00 Build 0)  -->
<svg xmlns="http://www.w3.org/2000/svg" xmlns:xlink="http://www.w3.org/1999/xlink" version="1.1" id="Layer_1" x="0px" y="0px" viewBox="0 0 502 502" style="enable-background:new 0 0 502 502;" xml:space="preserve" width="512" height="512">
<g>
	<g>
		<path style="fill:#C1272D;" d="M344.662,94.347c-3.448,27.849-44.048,49.835-93.662,49.835s-90.214-21.985-93.662-49.835    C72.101,111.795,25.563,211.501,74.956,289.579l102.394,161.862c34.21,54.079,113.091,54.079,147.301,0l102.394-161.862    C476.437,211.501,429.899,111.795,344.662,94.347z"/>
		<path style="fill:#39B54A;" d="M251,144.182c49.613,0,90.214-21.985,93.662-49.835c-8.503-1.741-28.536-6.075-37.753-6.075    c-27.955,0-83.864,0-111.818,0c-9.217,0-29.25,4.334-37.753,6.075C160.786,122.196,201.387,144.182,251,144.182z"/>
		<path style="fill:#39B54A;" d="M273.923,10l-24.266,6.51c-12.729,3.415-21.579,14.953-21.579,28.132v55.93h45.845V10z"/>
	</g>
	<g>
		<path d="M446.045,166.478c-17.981-42.243-55.132-72.87-99.377-81.927l-2.548-0.525c-13.451-2.783-28.529-5.752-37.211-5.752    h-22.986V10c0-3.109-1.446-6.042-3.914-7.935c-2.465-1.892-5.675-2.529-8.677-1.724l-24.268,6.511    c-17.067,4.58-28.987,20.12-28.987,37.791v33.63h-22.986c-8.682,0-23.76,2.969-37.211,5.752l-2.548,0.525    c-44.245,9.057-81.396,39.684-99.377,81.927c-18.073,42.462-14.229,89.28,10.549,128.448l102.395,161.861    C186.808,485.098,217.5,502,251,502s64.192-16.902,82.102-45.213l102.395-161.861C460.273,255.757,464.118,208.94,446.045,166.478    z M238.077,44.643c0-8.638,5.827-16.235,14.17-18.474l11.676-3.132v67.536h-25.846V44.643z M218.077,98.272v2.3    c0,5.523,4.478,10,10,10h45.846c5.522,0,10-4.477,10-10v-2.3h22.986c5.399,0,16.211,1.939,24.896,3.657    c-10.028,18.421-43.228,32.253-80.805,32.253s-70.776-13.832-80.805-32.253c8.685-1.717,19.497-3.657,24.896-3.657H218.077z     M418.594,284.233L316.199,446.095C301.977,468.578,277.604,482,251,482s-50.977-13.422-65.199-35.905L83.406,284.233    c-21.212-33.532-24.511-73.597-9.049-109.923c14.155-33.254,42.123-58.097,75.894-67.918    c11.332,27.885,51.939,47.789,100.749,47.789s89.417-19.904,100.749-47.789c33.771,9.821,61.738,34.664,75.894,67.918    C443.104,210.636,439.806,250.702,418.594,284.233z"/>
		<path d="M399.929,193.513c-5.485,0.642-9.412,5.609-8.771,11.095c0.761,6.494,0.977,13.078,0.644,19.571    c-0.282,5.516,3.96,10.216,9.476,10.499c0.174,0.009,0.348,0.014,0.521,0.014c5.287,0,9.704-4.147,9.979-9.488    c0.39-7.607,0.137-15.318-0.753-22.92C410.38,196.797,405.407,192.875,399.929,193.513z"/>
		<path d="M395.928,257.961c-5.09-2.135-10.952,0.257-13.092,5.35c-2.616,6.232-5.818,12.356-9.517,18.202l-66.068,104.44    c-2.952,4.667-1.563,10.845,3.105,13.797c1.659,1.049,3.508,1.55,5.336,1.55c3.314,0,6.558-1.647,8.461-4.655l66.067-104.44    c4.291-6.781,8.011-13.898,11.057-21.153C403.415,265.96,401.02,260.1,395.928,257.961z"/>
		<path d="M127.937,205.682v-7.827c0-5.523-4.478-10-10-10s-10,4.477-10,10v7.827c0,5.523,4.478,10,10,10    S127.937,211.205,127.937,205.682z"/>
		<path d="M215.154,260.473v-10.064c0-5.523-4.478-10-10-10s-10,4.477-10,10v10.064c0,5.523,4.478,10,10,10    S215.154,265.996,215.154,260.473z"/>
		<path d="M285.664,176.672c-5.522,0-10,4.477-10,10v6.709c0,5.523,4.478,10,10,10s10-4.477,10-10v-6.709    C295.664,181.149,291.187,176.672,285.664,176.672z"/>
		<path d="M277.836,316.445c-5.522,0-10,4.477-10,10v13.418c0,5.523,4.478,10,10,10s10-4.477,10-10v-13.418    C287.836,320.922,283.358,316.445,277.836,316.445z"/>
		<path d="M334.863,253.7c5.522,0,10-4.477,10-10v-5.591c0-5.523-4.478-10-10-10s-10,4.477-10,10v5.591    C324.863,249.223,329.341,253.7,334.863,253.7z"/>
		<path d="M215.218,369c-5.522,0-10,4.477-10,10v13.418c0,5.523,4.478,10,10,10s10-4.477,10-10V379    C225.218,373.477,220.74,369,215.218,369z"/>
		<path d="M277.836,420.436c-5.522,0-10,4.477-10,10v7.827c0,5.523,4.478,10,10,10s10-4.477,10-10v-7.827    C287.836,424.913,283.358,420.436,277.836,420.436z"/>
		<path d="M134.709,290.727c-5.522,0-10,4.477-10,10v12.3c0,5.523,4.478,10,10,10s10-4.477,10-10v-12.3    C144.709,295.204,140.231,290.727,134.709,290.727z"/>
	</g>
</g>















</svg>
