<?xml version="1.0" encoding="iso-8859-1"?>
<!DOCTYPE svg PUBLIC "-//W3C//DTD SVG 20010904//EN" "http://www.w3.org/TR/2001/REC-SVG-20010904/DTD/svg10.dtd">
<svg version="1.0" xmlns="http://www.w3.org/2000/svg" xmlns:xlink="http://www.w3.org/1999/xlink" width="1152px" height="1152px" xml:space="preserve">
<g id="tardis">
<g id="">
<path style="fill:#3d425e;" d="M 407.222 32.0485 C 398.985 35.2161 398.985 35.2161 398.985 50.2936 C 398.985 62.2316 398.299 65.3712 395.69 65.3712 C 393.669 65.3712 392.395 67.4263 392.395 70.688 C 392.395 76.8167 394.459 76.1941 348.465 83.9416 C 330.948 86.8923 302.283 91.8545 284.766 94.9687 C 267.249 98.0829 249.704 101.144 245.778 101.771 C 238.736 102.896 238.639 103.073 238.639 114.892 C 238.639 126.741 238.566 126.874 232.049 126.874 C 225.536 126.874 225.46 127.011 225.46 138.815 C 225.46 150.534 225.334 150.77 218.708 151.445 C 211.957 152.134 211.957 152.134 211.57 177.943 L 211.183 203.752 L 218.321 203.752 L 225.46 203.752 L 225.46 495.739 L 225.46 787.726 L 219.082 792.267 C 213.757 796.059 212.579 798.62 211.944 807.793 L 211.183 818.779 L 416.008 818.777 L 620.833 818.776 L 620.833 807.972 C 620.833 797.995 620.245 796.806 613.145 792.418 L 605.457 787.666 L 605.457 495.709 L 605.457 203.752 L 613.145 203.752 L 620.833 203.752 L 620.833 177.393 L 620.833 151.035 L 613.145 151.035 C 605.457 151.035 605.457 151.035 605.457 138.954 C 605.457 127.533 605.158 126.874 599.966 126.874 C 594.78 126.874 594.474 126.208 594.474 114.892 C 594.474 103.078 594.375 102.895 587.336 101.749 C 560.535 97.3854 450.641 78.4887 445.813 77.4134 C 442.947 76.775 440.741 74.3631 440.322 71.408 C 439.863 68.1769 437.851 66.2189 434.505 65.7448 C 429.632 65.0546 429.423 64.3046 430.112 49.9316 C 430.834 34.8431 430.834 34.8431 423.146 31.862 C 416.604 29.3253 414.231 29.3531 407.222 32.0485 L 407.222 32.0485 M 423.146 51.0939 C 423.146 63.1747 423.146 63.1747 415.459 63.1747 C 407.771 63.1747 407.771 63.1747 407.771 51.0939 C 407.771 39.013 407.771 39.013 415.459 39.013 C 423.146 39.013 423.146 39.013 423.146 51.0939 L 423.146 51.0939 M 601.064 177.393 L 601.064 199.359 L 416.557 199.359 L 232.049 199.359 L 232.049 177.393 L 232.049 155.428 L 416.557 155.428 L 601.064 155.428 L 601.064 177.393 L 601.064 177.393 M 295.748 244.387 L 295.748 271.844 L 280.373 271.844 L 264.997 271.844 L 264.997 244.387 L 264.997 216.931 L 280.373 216.931 L 295.748 216.931 L 295.748 244.387 L 295.748 244.387 M 334.804 244.936 L 335.421 271.844 L 318.879 271.844 L 302.338 271.844 L 302.338 245.852 C 302.338 231.556 303.037 219.16 303.892 218.305 C 304.747 217.45 311.913 217.038 319.817 217.39 L 334.187 218.029 L 334.804 244.936 L 334.804 244.936 M 372.626 244.387 L 372.626 271.844 L 357.251 271.844 L 341.875 271.844 L 341.875 244.387 L 341.875 216.931 L 357.251 216.931 L 372.626 216.931 L 372.626 244.387 L 372.626 244.387 M 420.95 498.085 C 420.95 777.774 420.927 779.239 416.557 779.239 C 412.187 779.239 412.164 777.774 412.164 498.085 C 412.164 218.395 412.187 216.931 416.557 216.931 C 420.927 216.931 420.95 218.395 420.95 498.085 L 420.95 498.085 M 491.238 244.387 L 491.238 271.844 L 475.863 271.844 L 460.487 271.844 L 460.487 244.387 L 460.487 216.931 L 475.863 216.931 L 491.238 216.931 L 491.238 244.387 L 491.238 244.387 M 530.294 244.936 L 530.911 271.844 L 514.369 271.844 L 497.828 271.844 L 497.828 245.852 C 497.828 231.556 498.527 219.16 499.382 218.305 C 500.237 217.45 507.403 217.038 515.307 217.39 L 529.677 218.029 L 530.294 244.936 L 530.294 244.936 M 568.116 244.387 L 568.116 271.844 L 552.741 271.844 L 537.365 271.844 L 537.365 244.387 L 537.365 216.931 L 552.741 216.931 L 568.116 216.931 L 568.116 244.387 L 568.116 244.387 M 295.748 305.89 L 295.748 333.346 L 280.373 333.346 L 264.997 333.346 L 264.997 305.89 L 264.997 278.433 L 280.373 278.433 L 295.748 278.433 L 295.748 305.89 L 295.748 305.89 M 334.805 306.536 L 335.422 333.541 L 319.429 332.895 L 303.436 332.248 L 302.809 308.227 C 302.463 295.016 302.697 282.862 303.328 281.219 C 304.174 279.013 308.362 278.401 319.331 278.881 L 334.187 279.531 L 334.805 306.536 L 334.805 306.536 M 372.626 305.89 L 372.626 333.346 L 357.251 333.346 L 341.875 333.346 L 341.875 305.89 L 341.875 278.433 L 357.251 278.433 L 372.626 278.433 L 372.626 305.89 L 372.626 305.89 M 490.757 306.439 L 491.373 333.346 L 475.93 333.346 L 460.487 333.346 L 460.487 305.789 L 460.487 278.232 L 475.314 278.882 L 490.14 279.531 L 490.757 306.439 L 490.757 306.439 M 529.677 305.89 L 529.677 332.248 L 513.753 332.893 L 497.828 333.539 L 497.828 305.89 L 497.828 278.241 L 513.753 278.886 L 529.677 279.531 L 529.677 305.89 L 529.677 305.89 M 568.116 305.89 L 568.116 333.346 L 551.642 333.346 L 535.169 333.346 L 535.169 307.354 C 535.169 293.058 535.828 280.703 536.633 279.898 C 537.438 279.092 544.852 278.433 553.107 278.433 L 568.116 278.433 L 568.116 305.89 L 568.116 305.89 M 569.797 419.559 L 570.38 482.709 L 514.335 482.709 L 458.291 482.709 L 458.291 418.972 L 458.291 355.236 L 513.753 355.823 L 569.215 356.409 L 569.797 419.559 L 569.797 419.559 M 368.233 420.108 L 368.233 478.316 L 318.812 478.316 L 269.39 478.316 L 269.39 420.108 L 269.39 361.901 L 318.812 361.901 L 368.233 361.901 L 368.233 420.108 L 368.233 420.108 M 374.823 568.373 L 374.823 632.072 L 318.812 632.072 L 262.801 632.072 L 262.801 568.373 L 262.801 504.674 L 318.812 504.674 L 374.823 504.674 L 374.823 568.373 L 374.823 568.373 M 570.313 568.373 L 570.313 632.072 L 514.302 632.072 L 458.291 632.072 L 458.291 568.373 L 458.291 504.674 L 514.302 504.674 L 570.313 504.674 L 570.313 568.373 L 570.313 568.373 M 374.823 716.561 L 374.823 779.084 L 323.754 779.71 C 295.666 780.055 270.461 780.021 267.743 779.635 C 262.801 778.933 262.801 778.933 262.801 716.485 L 262.801 654.037 L 318.812 654.037 L 374.823 654.037 L 374.823 716.561 L 374.823 716.561 M 570.313 716.485 C 570.313 778.933 570.313 778.933 565.371 779.635 C 562.652 780.021 537.447 780.055 509.36 779.71 L 458.291 779.084 L 458.291 716.561 L 458.291 654.037 L 514.302 654.037 L 570.313 654.037 L 570.313 716.485 L 570.313 716.485 "/>
</g>
<g id="">
<path style="fill:#3d425e;" d="M 238.639 177.393 L 238.639 192.769 L 416.557 192.769 L 594.474 192.769 L 594.474 177.393 L 594.474 162.018 L 416.557 162.018 L 238.639 162.018 L 238.639 177.393 L 238.639 177.393 "/>
</g>
<g id="">
<path style="fill:#3d425e;" d="M 465.978 419.01 L 465.978 476.12 L 513.753 476.12 L 561.527 476.12 L 561.527 419.01 L 561.527 361.901 L 513.753 361.901 L 465.978 361.901 L 465.978 419.01 L 465.978 419.01 "/>
</g>
<g id="">
<path style="fill:#3d425e;" d="M 270.488 568.373 L 270.488 625.483 L 318.812 625.483 L 367.135 625.483 L 367.135 568.373 L 367.135 511.264 L 318.812 511.264 L 270.488 511.264 L 270.488 568.373 L 270.488 568.373 "/>
</g>
<g id="">
<path style="fill:#3d425e;" d="M 465.978 568.373 L 465.978 625.483 L 513.753 625.483 L 561.527 625.483 L 561.527 568.373 L 561.527 511.264 L 513.753 511.264 L 465.978 511.264 L 465.978 568.373 L 465.978 568.373 "/>
</g>
<g id="">
<path style="fill:#3d425e;" d="M 270.963 716.089 L 271.437 773.747 L 318.812 773.747 L 366.186 773.747 L 366.661 716.089 L 367.135 658.43 L 318.812 658.43 L 270.488 658.43 L 270.963 716.089 L 270.963 716.089 "/>
</g>
<g id="">
<path style="fill:#3d425e;" d="M 467.039 658.908 C 467.019 659.249 466.772 685.475 466.49 717.187 L 465.978 774.846 L 513.753 774.846 L 561.527 774.846 L 561.527 716.796 L 561.527 658.746 L 514.302 658.517 C 488.328 658.39 467.06 658.566 467.039 658.908 L 467.039 658.908 "/>
</g>
</g>

</svg>