<?xml version="1.0" encoding="iso-8859-1"?>
<!DOCTYPE svg PUBLIC "-//W3C//DTD SVG 20010904//EN" "http://www.w3.org/TR/2001/REC-SVG-20010904/DTD/svg10.dtd">
<svg version="1.0" xmlns="http://www.w3.org/2000/svg" xmlns:xlink="http://www.w3.org/1999/xlink" x="0px" y="0px" width="1152px" height="1152px" xml:space="preserve">
<g id="dalek.jpg_(Break)">
</g>
<g id="tardis_stencil_doctor_who_party_ideas_silhouette_outline_drawing.jpg">
<path style="fill:rgb(2,39,255);stroke:rgb(0,0,0);" d="M 400.575 12.1343 C 398.193 13.2688 395.076 14.4142 393.647 14.6804 C 389.15 15.5181 389.177 15.4095 389.357 31.9499 C 389.444 39.9552 389.282 47.1181 388.997 47.8674 C 388.534 49.0867 388.121 49.2299 385.072 49.2299 C 380.76 49.2299 380.285 49.7841 380.463 54.6002 C 380.55 56.9522 380.331 58.6819 379.879 59.2275 C 379.22 60.0219 376.556 60.6021 371.341 61.0865 C 370.267 61.1864 368.546 61.5247 367.517 61.8387 C 366.488 62.1528 363.828 62.7036 361.605 63.0627 C 359.383 63.4218 356.915 63.8473 356.121 64.0083 C 349.001 65.4511 341.99 66.7333 336.046 67.679 C 332.15 68.299 328.712 68.9606 328.407 69.1494 C 328.101 69.3382 325.444 69.7556 322.501 70.0772 C 319.559 70.3988 315.722 71.0119 313.976 71.4397 C 312.229 71.8675 308.982 72.3975 306.759 72.618 C 304.537 72.838 301.679 73.3547 300.409 73.7652 C 299.139 74.1762 296.93 74.6606 295.501 74.8424 C 294.072 75.0243 291.734 75.4463 290.305 75.7806 C 288.877 76.1149 286.668 76.5271 285.398 76.6968 C 281.897 77.1639 270.338 79.2117 265.655 80.1954 C 263.369 80.6752 259.212 81.286 256.417 81.5527 C 253.623 81.8194 250.67 82.2952 249.855 82.6104 C 249.04 82.925 246.832 83.3592 244.948 83.5745 C 243.063 83.7899 239.963 84.3198 238.057 84.7523 C 236.152 85.1847 232.256 85.8313 229.4 86.1881 C 226.543 86.5454 223.36 87.2388 222.327 87.729 L 220.449 88.6204 L 220.449 100.644 C 220.449 108.654 220.24 112.798 219.824 113.055 C 219.48 113.268 216.687 113.447 213.617 113.453 C 204.755 113.472 205.489 112.301 205.306 126.718 L 205.15 139.005 L 198.222 139.293 L 191.294 139.582 L 191.294 167.294 L 191.294 195.006 L 197.61 195.171 C 201.084 195.261 204.267 195.618 204.683 195.963 C 205.776 196.87 205.81 807.714 204.717 809.13 C 203.902 810.186 196.308 815.343 195.567 815.343 C 195.303 815.343 194.168 816.149 193.045 817.135 L 191.005 818.927 L 191.005 830.009 C 191.005 837.859 191.207 841.294 191.697 841.784 C 192.234 842.321 240.895 842.477 407.2 842.477 C 600.686 842.477 622.138 842.388 623.294 841.578 C 624.543 840.704 624.577 840.387 624.577 829.833 C 624.577 817.402 625.034 818.525 618.515 814.931 C 612.185 811.441 610.664 810.519 609.186 809.281 L 607.809 808.126 L 607.824 502.176 C 607.835 258.423 607.984 196.132 608.558 195.768 C 608.954 195.516 612.563 195.307 616.577 195.302 C 622.695 195.295 623.933 195.146 624.227 194.38 C 624.42 193.878 624.577 181.59 624.577 167.073 C 624.577 147.314 624.403 140.504 623.884 139.986 C 623.418 139.519 620.787 139.293 615.836 139.293 C 611.533 139.293 608.331 139.052 608.122 138.713 C 607.925 138.395 607.727 132.782 607.682 126.242 L 607.601 114.351 L 606.208 113.821 C 605.442 113.53 602.923 113.328 600.611 113.373 C 598.298 113.418 596.12 113.277 595.77 113.061 C 595.34 112.795 595.133 108.788 595.133 100.685 L 595.133 88.7018 L 593.167 87.7636 C 592.085 87.2475 589.032 86.5524 586.383 86.2187 C 583.734 85.885 579.748 85.2384 577.525 84.7817 C 567.605 82.7432 562.774 81.9234 558.44 81.5423 C 555.881 81.3172 551.854 80.7243 549.491 80.2243 C 547.128 79.7243 543.376 79.0234 541.153 78.6672 C 538.931 78.311 535.943 77.7903 534.514 77.5103 C 529.318 76.4924 521.457 75.052 518.638 74.6011 C 514.71 73.973 506.337 72.4979 500.741 71.4472 C 498.2 70.9703 493.524 70.1724 490.349 69.6742 C 477.325 67.6299 470.989 66.552 465.235 65.4014 C 461.901 64.7346 456.902 63.8126 454.125 63.3519 C 451.349 62.8918 447.972 62.229 446.62 61.8797 C 445.269 61.5304 441.976 61.0172 439.302 60.7389 C 436.629 60.4607 434.179 59.9711 433.859 59.6507 C 433.539 59.3302 433.326 57.2097 433.387 54.9385 C 433.452 52.538 433.223 50.4781 432.842 50.0185 C 432.415 49.5036 430.927 49.2282 428.575 49.2282 C 426.175 49.2282 424.737 48.9557 424.289 48.4159 C 423.811 47.8397 423.63 43.3498 423.669 32.9724 C 423.698 24.925 423.71 18.0127 423.695 17.6109 C 423.658 16.634 420.239 14.5932 418.634 14.5903 C 417.415 14.588 415.01 13.5817 410.275 11.0923 C 407.342 9.55023 405.605 9.73671 400.574 12.1326 L 400.575 12.1343 zM 412.737 22.6931 C 413.777 23.2496 413.853 23.9984 413.853 33.5919 C 413.853 42.4735 413.722 44.0016 412.898 44.6852 C 411.775 45.6164 400.813 45.5281 399.67 44.579 C 398.768 43.8308 398.558 24.8621 399.433 23.2271 C 399.972 22.2191 400.669 22.0961 405.829 22.0961 C 409.014 22.0961 412.123 22.3652 412.737 22.6937 L 412.737 22.6931 zM 599.337 146.196 C 599.585 146.419 599.795 155.908 599.806 167.283 C 599.82 183.736 599.67 188.063 599.067 188.445 C 598.65 188.71 512.317 188.865 407.214 188.79 L 216.119 188.654 L 215.83 168.278 C 215.671 157.072 215.697 147.459 215.889 146.917 C 216.214 145.992 227.665 145.914 404.386 145.643 C 507.869 145.484 593.965 145.452 595.711 145.572 C 597.458 145.691 599.089 145.972 599.337 146.195 L 599.337 146.196 zM 278.797 210.902 C 279.877 211.48 279.914 212.394 279.914 238.304 C 279.914 264.215 279.876 265.129 278.797 265.707 C 277.135 266.597 250.328 266.51 249.431 265.612 C 248.912 265.093 248.738 258.167 248.738 237.997 C 248.738 223.189 248.911 210.901 249.123 210.689 C 249.77 210.043 277.564 210.242 278.797 210.902 L 278.797 210.902 zM 319.634 210.997 C 320.631 211.995 320.631 264.614 319.634 265.612 C 318.774 266.472 291.14 266.611 290.613 265.758 C 290.152 265.013 290.125 211.641 290.584 210.897 C 291.138 210.001 318.732 210.096 319.634 210.997 L 319.634 210.997 zM 361.201 210.997 C 361.72 211.515 361.894 218.326 361.894 238.09 C 361.894 261.321 361.785 264.599 360.987 265.398 C 360.213 266.171 358.065 266.305 346.381 266.305 C 336.496 266.305 332.488 266.112 331.988 265.612 C 330.991 264.614 330.991 211.995 331.988 210.997 C 332.489 210.496 336.543 210.304 346.595 210.304 C 356.647 210.304 360.701 210.496 361.201 210.997 L 361.201 210.997 zM 410.897 211.086 C 411.376 211.663 411.508 288.941 411.4 505.667 L 411.255 799.466 L 407.791 799.466 L 404.327 799.466 L 404.183 505.667 C 404.076 288.941 404.208 211.663 404.686 211.086 C 405.046 210.653 406.43 210.304 407.791 210.304 C 409.153 210.304 410.537 210.653 410.897 211.086 L 410.897 211.086 zM 484.754 210.801 C 485.359 211.184 485.499 216.598 485.46 238.057 C 485.428 255.437 485.204 265.043 484.822 265.426 C 484.108 266.141 456.048 266.542 454.999 265.852 C 454.453 265.493 454.28 259.113 454.256 238.401 C 454.239 223.561 454.379 211.168 454.568 210.862 C 454.993 210.174 483.675 210.117 484.754 210.801 L 484.754 210.801 zM 525.163 210.997 C 526.16 211.995 526.16 264.614 525.163 265.612 C 524.178 266.596 496.934 266.596 495.95 265.612 C 495.431 265.094 495.257 258.284 495.257 238.525 C 495.257 224.008 495.415 211.72 495.608 211.217 C 495.914 210.419 497.747 210.304 510.214 210.304 C 520.532 210.304 524.661 210.495 525.163 210.997 L 525.163 210.997 zM 566.707 237.978 C 566.825 259.504 566.701 265.463 566.13 265.826 C 565.084 266.49 538.919 266.414 537.151 265.742 L 535.67 265.179 L 535.67 238.348 C 535.67 213.406 535.741 211.475 536.68 210.922 C 537.317 210.548 543.029 210.377 552.124 210.461 L 566.557 210.593 L 566.707 237.978 L 566.707 237.978 zM 279.001 275.315 C 279.815 275.628 279.914 278.585 279.914 302.753 L 279.914 329.84 L 278.433 330.403 C 276.196 331.253 250.296 331.138 249.431 330.273 C 248.912 329.754 248.738 322.827 248.738 302.657 C 248.738 287.85 248.912 275.562 249.124 275.35 C 249.604 274.869 277.753 274.837 279.001 275.315 L 279.001 275.315 zM 319.634 275.658 C 320.632 276.655 320.632 329.275 319.634 330.273 C 318.829 331.078 292.254 331.269 291.009 330.478 C 290.424 330.107 290.266 324.346 290.259 303.053 C 290.255 288.228 290.408 275.843 290.601 275.532 C 291.14 274.661 318.757 274.781 319.634 275.658 L 319.634 275.658 zM 361.202 275.658 C 362.199 276.655 362.199 329.275 361.202 330.273 C 360.217 331.257 332.973 331.257 331.989 330.273 C 330.991 329.275 330.991 276.655 331.989 275.658 C 332.49 275.157 336.544 274.965 346.595 274.965 C 356.647 274.965 360.701 275.157 361.202 275.658 L 361.202 275.658 zM 483.595 275.658 C 484.593 276.655 484.593 329.275 483.595 330.273 C 482.698 331.17 456.467 331.256 454.806 330.368 C 453.726 329.79 453.69 328.877 453.69 303.06 C 453.69 283.056 453.863 276.177 454.382 275.658 C 454.883 275.157 458.937 274.965 468.989 274.965 C 479.041 274.965 483.095 275.157 483.595 275.658 L 483.595 275.658 zM 524.998 275.557 C 525.199 275.882 525.343 288.272 525.319 303.091 C 525.284 323.931 525.111 330.141 524.555 330.507 C 523.72 331.056 495.536 330.862 494.979 330.304 C 494.486 329.81 494.449 276.382 494.942 275.584 C 495.459 274.749 524.483 274.722 524.998 275.557 L 524.998 275.557 zM 564.778 275.315 C 565.592 275.628 565.691 278.585 565.691 302.753 L 565.691 329.84 L 564.21 330.403 C 561.973 331.253 536.072 331.138 535.208 330.273 C 534.21 329.275 534.21 276.655 535.208 275.658 C 535.709 275.157 539.778 274.965 549.883 274.965 C 557.573 274.965 564.275 275.122 564.778 275.315 L 564.778 275.315 zM 568.227 357.281 C 568.802 358.78 568.615 485.891 568.037 486.805 C 567.589 487.513 559.304 487.642 510.457 487.699 C 479.076 487.735 453.076 487.66 452.679 487.531 C 452.108 487.347 451.958 473.772 451.958 422.218 C 451.958 386.424 452.131 356.965 452.343 356.753 C 452.555 356.541 478.636 356.368 510.302 356.368 C 562.27 356.368 567.911 356.457 568.227 357.281 L 568.227 357.281 zM 354.851 361.679 C 355.381 362.209 355.544 376.262 355.544 421.412 C 355.544 479.193 355.52 480.465 354.427 481.05 C 353.683 481.449 337.141 481.648 304.818 481.648 C 260.921 481.648 256.237 481.559 255.392 480.714 C 254.543 479.866 254.466 474.462 254.542 421.234 C 254.614 370.511 254.739 362.574 255.475 361.837 C 256.211 361.101 262.925 360.986 305.242 360.986 C 342.518 360.986 354.323 361.152 354.851 361.679 L 354.851 361.679 zM 363.008 513.062 C 363.811 514.031 363.911 641.973 363.109 642.94 C 362.714 643.415 347.187 643.511 304.933 643.299 L 247.296 643.011 L 247.149 578.188 L 247.002 513.365 L 248.304 512.834 C 249.065 512.523 273.014 512.304 305.994 512.306 C 351.626 512.308 362.502 512.453 363.008 513.061 L 363.008 513.062 zM 567.15 512.829 L 568.578 513.372 L 568.578 577.643 C 568.578 626.862 568.416 642.076 567.885 642.607 C 567.012 643.48 452.804 643.625 452.266 642.753 C 451.602 641.678 451.934 513.836 452.604 513.03 C 453.119 512.41 463.643 512.27 509.48 512.278 C 543.164 512.283 566.296 512.504 567.151 512.829 L 567.15 512.829 zM 362.918 668.608 C 363.505 668.98 363.65 682.081 363.642 733.949 C 363.637 769.631 363.422 799.036 363.165 799.293 C 362.908 799.549 336.732 799.694 304.997 799.613 L 247.296 799.466 L 247.149 734.354 L 247.002 669.243 L 248.304 668.72 C 249.925 668.068 361.896 667.958 362.918 668.607 L 362.918 668.608 zM 567.461 668.721 C 568.555 669.307 568.578 670.641 568.578 733.844 C 568.578 783.26 568.415 798.531 567.885 799.062 C 567.044 799.902 452.806 800.082 452.287 799.243 C 452.113 798.962 451.962 769.56 451.95 733.904 C 451.933 681.97 452.075 668.983 452.665 668.609 C 453.798 667.889 566.112 668 567.461 668.721 L 567.461 668.721 zM 406.059 149.106 L 219.583 149.396 L 219.429 166.427 C 219.29 181.926 219.364 183.523 220.261 184.18 C 221.675 185.215 593.406 185.244 594.441 184.209 C 594.949 183.701 595.134 178.992 595.134 166.621 C 595.134 150.507 595.082 149.698 594.018 149.128 C 593.403 148.799 592.819 148.594 592.719 148.673 C 592.618 148.752 508.622 148.947 406.059 149.106 L 406.059 149.106 zM 459.514 360.635 C 458.489 361.87 458.562 482.241 459.588 482.892 C 459.995 483.151 482.717 483.366 510.081 483.371 C 555.12 483.379 559.923 483.291 560.767 482.447 C 561.614 481.599 561.692 476.055 561.624 421.683 C 561.557 368.227 561.452 361.744 560.643 360.842 C 559.794 359.894 556.638 359.831 509.959 359.831 C 468.126 359.831 460.074 359.959 459.514 360.635 L 459.514 360.635 zM 254.049 517.558 C 253.18 518.427 253.03 638.988 253.898 639.525 C 254.475 639.881 356.179 639.97 356.535 639.614 C 356.883 639.266 356.726 517.954 356.377 517.389 C 355.852 516.539 254.903 516.705 254.05 517.558 L 254.049 517.558 zM 459.2 517.401 C 459.018 517.695 458.865 545.019 458.861 578.12 C 458.854 626.344 459 638.397 459.59 638.773 C 459.996 639.03 482.721 639.245 510.09 639.249 L 559.851 639.258 L 560.721 638.017 C 561.481 636.932 561.595 629.34 561.633 577.741 C 561.672 524.439 561.586 518.617 560.755 517.786 C 559.926 516.957 554.818 516.865 509.682 516.865 C 479.469 516.865 459.398 517.078 459.199 517.401 L 459.2 517.401 zM 253.642 673.465 C 253.47 674.179 253.4 701.783 253.487 734.806 L 253.646 794.848 L 304.707 794.995 C 332.791 795.076 355.985 794.926 356.249 794.662 C 356.793 794.119 356.946 673.609 356.404 672.733 C 356.179 672.368 337.803 672.166 305.005 672.166 L 253.957 672.166 L 253.643 673.465 L 253.642 673.465 zM 459.184 673.304 C 458.735 674.029 458.743 794.439 459.191 795.165 C 459.402 795.505 478.683 795.714 509.941 795.714 C 552.326 795.714 560.459 795.586 561.02 794.909 C 561.517 794.311 561.672 778.782 561.625 734.288 C 561.57 682.015 561.453 674.361 560.698 673.607 C 559.945 672.853 553.432 672.743 509.682 672.743 C 477.859 672.743 459.403 672.948 459.183 673.304 L 459.184 673.304 z"/>
</g>

</svg>